<?xml version='1.0' encoding='utf-8'?>
<svg xmlns="http://www.w3.org/2000/svg" width="1017px" height="1017px" version="1.1" viewBox="29 534 1017 1017"> <g fill="#fff9e9"> <path d="m28.999 533.35c-0.17283 0-0.33859 0.06865-0.4608 0.19085s-0.19087 0.288-0.19087 0.4608l1e-3 1017c0 0.3599 0.29176 0.6517 0.65167 0.6517l1017 1e-3c0.1728 0 0.3386-0.0687 0.4608-0.1909s0.1909-0.288 0.1909-0.4608l-1e-3 -1017c0-0.3599-0.2918-0.6517-0.6517-0.6517l-1017-9.5e-4z"/> </g> <g fill="#c6f4ee"> <path d="m341.41 947.66 399.62-0.0708q0.02356 131.27 0.0471 262.54l-399.62 0.0725q-0.02362-131.27-0.04718-262.54"/> </g> <path d="m555.45 634.25c-0.2717 0.63394-0.5433 14.125-0.63393 29.97l-0.27157 28.883-3.5312 1.1771c-4.6177 1.6297-10.141 7.0622-11.952 11.952-2.3541 5.9758-1.4487 14.578 1.9919 19.467 2.9879 4.3461 7.6962 7.8773 11.499 8.6018l2.4447 0.45266v34.588c1e-4 38.028-0.4526 42.103-5.1609 45.815-2.2637 1.8109-3.2597 1.8109-30.966 1.6298l-28.612-0.2715-2.1731-5.4325c-1.6298-4.0746-2.2635-7.7869-2.6258-14.668l-0.45264-9.1449 6.8812 6.7001c6.8813 6.7003 9.7788 8.0584 12.223 5.6139 1.9919-1.9921 1.0864-3.803-5.5232-10.141-4.0745-3.8933-8.2394-9.0544-10.503-12.948-4.2556-7.3341-6.3381-9.0543-9.2355-7.4245-1.9014 0.99584-1.9014 1.4486-1.5391 18.743 0.36212 15.392 0.7243 18.562 2.3541 23.179 1.0866 2.9879 1.992 5.5231 1.992 5.7041 0 0.09057-6.3381 0.27173-14.125 0.27173-7.9678-1.2e-4 -14.849 0.36204-15.845 0.90528-1.6298 0.90539-1.7203 2.5353-1.7203 55.956 0 41.65 0.27167 55.322 1.0866 56.137 0.81495 0.81505 22.274 1.0866 90.996 1.0866h89.91l0.815-2.0824c0.36214-1.0867 0.6337-26.167 0.6337-55.684-0.0905-52.244-0.18104-53.783-1.9014-55.051-1.4487-1.0865-7.6962-1.2676-37.304-1.0865-31.328 0.2718-35.493 0.09067-35.04-1.0865 2.8974-6.7906 3.0785-9.7787 3.0785-45.272v-36.036l2.5352-0.45254c4.2555-0.90551 9.7787-5.6139 12.314-10.684 5.342-10.775 1.0865-23.088-9.8694-28.431l-4.9798-2.4446-0.18115-29.608-0.27155-29.517-2.9879-0.27174c-1.8109-0.18103-3.0785 0.18114-3.3501 0.9054zm9.326 68.632c3.7122 2.2635 6.519 6.8812 6.519 10.684 0 12.676-14.306 18.199-22.636 8.692-5.0705-5.8854-3.0784-16.298 3.8934-19.739 3.9839-1.9012 8.6016-1.8107 12.223 0.36242zm-74.065 125.49c7.4246 7.6055 17.203 12.223 26.71 12.404l5.4327 0.18116v-3.0785c0-3.4407-0.1812-3.5313-9.5072-5.4325-2.7162-0.54336-7.2435-2.3543-9.9598-3.984l-4.9799-2.8974 29.608-0.2717c16.207-0.0906 43.099-0.09046 59.578 0l29.97 0.2717-21.459 18.109c-47.626 40.111-51.248 43.008-54.688 43.008-3.8934 0-4.8893-0.72427-19.558-13.129-6.4286-5.4327-21.006-17.837-32.505-27.525-11.409-9.6881-21.64-18.29-22.636-19.286-1.7204-1.6298-1.4487-1.6298 9.5071-1.6298l11.318-1.3e-4 3.169 3.2596zm12.948 40.201c3.8028 3.1692 6.9718 6.0665 6.9718 6.4286 0 0.81493-51.157 42.465-52.063 42.465-0.27161 0-0.45276-19.739-0.45276-43.914v-43.914l19.286 16.57c10.594 9.0542 22.364 19.105 26.258 22.364zm121.78 27.887-0.2716 22.545-24.447-19.829c-13.4-10.956-25.624-20.825-27.073-22.002l-2.5352-1.992 12.948-10.865c7.153-5.9758 19.376-16.298 27.072-22.817l14.034-11.952 0.27165 22.183c0.0906 12.133 0.0906 32.324 0 44.728zm-99.87-9.4165c9.4165 7.6962 15.845 9.4165 22.364 6.1568 1.7203-0.9054 6.338-4.2554 10.05-7.3338l6.8812-5.7044 9.7788 8.0584c5.342 4.4368 17.022 13.853 25.805 20.916 8.7828 7.0624 16.207 13.219 16.57 13.763 0.36226 0.63376-23.451 0.9056-76.147 0.9055-54.688 1e-4 -76.509-0.2716-75.785-0.996 0.54321-0.5431 12.495-10.232 26.62-21.64 21.006-16.841 25.986-20.463 27.073-19.557 0.72434 0.54309 3.8028 2.9879 6.7907 5.4325z"/> <path d="m319.13 776.22c-37.123 5.4326-63.381 39.748-58.491 76.419 3.8028 28.431 25.081 52.062 52.334 58.129 9.9598 2.1731 26.439 1.3583 35.312-1.7202 37.394-13.129 56.228-50.161 44.185-86.469-6.6097-19.648-23.27-36.489-42.737-43.099-10.956-3.7123-20.553-4.7082-30.604-3.2596zm20.825 8.6017c12.495 2.6257 26.529 11.227 34.406 21.096 8.33 10.322 14.034 25.896 14.034 38.119 6e-5 15.483-6.8813 31.781-18.199 42.827-24.537 23.994-62.928 23.179-86.198-1.9919-19.195-20.734-21.368-51.519-5.3421-74.88 13.763-20.101 38.119-30.06 61.298-25.171z"/> <path d="m324.29 806.28c-1.5392 1.5392-1.5392 48.803 0 50.342 1.3582 1.3581 5.5232 1.3581 6.8814 0 1.5392-1.5392 1.5392-48.803 0-50.342-0.6338-0.6338-2.173-1.0866-3.4407-1.0866-1.2676 0-2.8068 0.4528-3.4407 1.0866z"/> <path d="m324.65 873.46c-2.8974 2.8068-2.988 5.9758-0.2716 8.511 3.9839 3.7123 9.6882 1.4486 9.6882-3.8027 0-3.6218-1.5393-5.7044-4.7083-6.4286-1.9014-0.45275-2.9879-0.09057-4.7083 1.7204z"/> <path d="m734.38 803.28c-33.048 5.5232-60.03 25.895-74.517 56.137-8.3301 17.294-11.499 34.859-9.5977 52.787 1.4488 12.948 3.8029 21.187 9.5977 33.23 13.038 27.163 36.217 46.086 65.735 53.873 9.6882 2.5354 28.34 3.4407 39.024 1.811 21.187-3.0785 41.107-13.038 55.956-27.978 33.682-34.135 38.572-87.465 11.59-127.3-8.6018-12.586-24.447-26.439-38.21-33.32-18.109-9.0542-40.292-12.495-59.578-9.2353zm33.411 18.109c7.4246 7.4244 8.6922 9.1447 13.762 19.467 3.0785 6.2476 5.7949 12.767 6.0665 14.578l0.6339 3.2596-6.2477 0.54321c-3.35 0.36204-11.137 0.81489-17.203 1.177l-11.137 0.6339-1.2e-4 -25.534v-25.533l2.9881 1.6298c1.539 0.9054 6.6096 5.2516 11.137 9.7788zm-21.821 14.487v24.899h-7.153c-8.8734-5e-5 -27.706-1.8108-27.706-2.7162 0-1.5392 3.6218-10.956 6.338-16.298 4.2556-8.5111 9.0544-15.121 15.121-20.916 4.7084-4.5271 11.68-9.8692 12.948-9.8692 0.2716 0 0.4528 11.227 0.4528 24.899zm-21.55-18.38c-8.8732 10.322-14.396 19.92-18.742 32.867-2.3542 6.9718-2.5353 7.2435-5.0704 6.9718-6.5192-0.72454-25.714-6.8813-25.714-8.2395 0-0.36218 2.6258-3.8028 5.7946-7.515 10.05-11.771 24.537-21.368 40.835-27.073 3.9837-1.3582 7.4244-2.5352 7.5149-2.5352 0.18115-0.0906-1.9012 2.4446-4.6176 5.523zm53.874-2.8067c13.943 4.708 28.25 13.853 38.39 24.628 9.5977 10.232 9.5977 10.05 3.2596 12.404-5.0705 1.992-19.105 5.3421-22.093 5.4327-0.99587 0-2.0824-1.8109-3.5313-6.0664-4.346-13.038-11.68-25.986-19.648-34.497-1.9919-2.0825-3.2595-3.8028-2.8067-3.8029 0.5432 0 3.3501 0.81495 6.4286 1.9015zm-101.95 44.185c3.5311 1.4486 10.594 3.5312 15.664 4.7082l9.3261 2.1733-0.54333 3.6216c-0.2715 1.9921-1.1769 7.5153-1.9013 12.223-0.7244 4.7082-1.3582 10.322-1.3582 12.405v3.8934l-16.479 0.0905c-9.1448 0-18.018 0.09054-19.739 0.1811l-3.1691 0.1812 0.27176-5.3422c0.4526-7.6056 3.9839-20.644 7.8772-29.336 1.9016-4.0746 3.4408-7.4245 3.5314-7.4245 0.09056 0 2.9879 1.177 6.5191 2.6256zm156.73 4.3462c4.5272 10.05 8.4207 25.171 8.4206 32.505v2.8974l-19.376-0.09056-19.286-0.181-0.63376-7.2437c-0.54324-6.8814-2.6259-20.644-3.7123-23.994-0.3622-1.2677 1.0864-1.8109 9.2352-3.5313 5.4327-1.177 12.224-3.0785 15.211-4.1649 2.9882-1.1772 5.8856-2.173 6.4286-2.173 0.54336-0.0906 2.2637 2.6256 3.7124 5.9758zm-42.284 3.3501c0 0.2716 0.8148 5.2517 1.7203 11.137 0.9959 5.8852 1.9012 12.948 2.0824 15.664l0.27161 4.98-4.9799-0.18126c-2.7163-4e-5 -12.042-0.18124-20.553-0.18114l-15.664-0.0906 1.2e-4 -14.396v-14.396l9.7786-0.6337c5.3421-0.2717 12.948-0.90546 16.932-1.2678 9.8692-0.99579 10.413-1.0863 10.413-0.63374zm-56.318 2.0826 11.046 0.54326v14.396l-1.4e-4 14.306-20.372-1.5e-4c-15.664 1.9e-4 -20.372-0.27155-20.372-1.177 0-0.5432 0.9054-7.5151 1.992-15.483l1.992-14.396 7.334 0.6339c3.9839 0.2716 12.223 0.8148 18.38 1.1771zm-37.394 43.461c0.4528 5.2516 1.4486 11.68 3.8028 25.353 0.45276 2.6257 0.2716 2.9879-1.4487 2.9879-3.2596-1e-4 -20.191 4.2555-24.809 6.2473l-4.3459 1.9016-1.7204-2.9879c-4.5274-7.3343-9.2356-22.545-10.503-33.864l-0.54322-5.6137 19.467-0.0905 19.467-1e-4 0.6338 6.0664zm48.531 4.3464c0 5.7042 0.0906 12.586 0.0906 15.121l0.0906 4.7986-11.227 0.5434c-6.0664 0.3622-14.215 0.9055-18.108 1.1773l-6.8815 0.6337-0.99598-3.9839c-1.4486-5.4326-3.8029-21.64-3.8029-25.533v-3.1691l20.372-4e-5h20.372l0.0905 10.413zm49.346-2.9878c-0.81469 9.4166-3.169 23.541-4.0746 24.537-0.45252 0.36204-5.6135 0.2714-11.499-0.18124-5.8853-0.54336-14.125-0.99606-18.199-0.99616h-7.5151v-15.392l-6e-5 -15.393 41.922 2.6e-4 -0.63366 7.4246zm46.268-0.815c-0.7244 8.0584-4.1651 20.373-8.2394 29.246l-3.0785 6.5193-7.5151-2.5354c-4.1651-1.4486-11.228-3.3501-15.574-4.165l-8.0582-1.5391 0.63393-2.8069c1.3579-6.7908 3.1688-21.368 3.1687-26.077v-5.2515l19.557-6e-5h19.648l-0.54324 6.6097zm-95.705 46.087c0.0904 8.149 0.181 19.105 0.2717 24.537 0.09046 5.3421-1e-4 9.6881-0.2716 9.6881-0.9055 0-6.8814-3.984-10.684-7.0622-7.6963-6.3384-16.388-19.829-21.459-33.049-1.8109-4.8893-1.992-6.2474-0.996-6.6099 0.996-0.36203 18.38-1.6296 29.789-2.0825l3.3502-0.09044v14.668zm31.056-13.219c6.3379 0.2716 11.68 0.9055 11.952 1.2677 1.5392 2.4446-9.2354 24.175-16.026 32.505-4.1648 5.0706-15.936 14.578-18.109 14.578-0.36207 0-0.72427-11.228-0.72437-24.9v-24.99l5.7041 0.54336c3.0786 0.18114 10.775 0.72448 17.204 0.99604zm-70.896 8.2395c4.1649 12.495 12.042 25.805 20.644 34.859 1.8108 1.9015 2.9879 3.4407 2.7162 3.4407-1.8108 0-15.483-5.0704-20.915-7.7866-7.7868-3.8934-12.948-7.425-19.467-12.948-4.98-4.3461-13.763-14.215-13.763-15.573 0-1.2676 6.157-3.5313 15.845-5.7949 13.219-3.0784 12.586-3.2595 14.94 3.803zm98.964-4.6176c8.6017 1.8108 20.554 5.7947 20.554 6.7002 0 0.36207-3.6218 4.5271-8.0584 9.2352-12.042 12.676-24.628 20.463-41.469 25.624l-3.8029 1.177 4.7084-5.3422c6.3378-7.1531 13.4-19.105 16.569-27.706 1.3583-3.8933 2.8072-7.9677 3.1692-9.1449 0.90554-2.354 0.2716-2.354 8.3298-0.54307z"/> <path d="m351.27 942.73c-7.0624 2.173-14.215 8.9638-16.117 15.302-0.81488 2.6257-1.0865 22.907-1.0865 75.151v71.62l-133.55 0.5435-4.9799 1.9917c-21.097 8.6921-30.06 35.312-18.471 55.051 2.4447 4.2556 9.4165 11.137 14.034 13.853 7.5152 4.5273 10.141 4.7085 78.864 4.7085l64.014-3e-4 0.27162 24.175c0.27173 22.908 0.3623 24.447 2.2637 27.888 2.2636 4.2556 6.7002 8.6015 11.137 10.956 2.988 1.6299 6.8813 1.7204 70.534 1.9919l67.274 0.1812-0.63379 2.988c-0.27161 1.5393-2.7162 12.676-5.2515 24.628l-4.7083 21.73-15.845 0.4524c-14.306 0.4529-16.117 0.6338-19.014 2.4448-7.5152 4.6177-9.9598 9.6883-9.9598 20.191 0 4.7991 0.4527 8.2398 1.3582 9.9597 2.9879 5.7044-3.2596 5.4329 108.38 5.4329 97.334 0 101.86-0.0906 105.39-1.7202 5.7041-2.6258 6.7001-4.6177 6.7001-13.582s-1.9014-13.944-6.8813-18.109c-4.7083-3.803-8.6922-4.6179-23.722-4.6179-12.223 0-13.672-0.1812-14.125-1.6299-0.54336-1.6297-10.503-47.173-10.503-47.807 0-0.1812 29.608-0.3626 65.916-0.3623 42.556 0 67.002-0.3623 69.175-0.9053 5.523-1.5393 10.865-6.2476 13.763-11.952l2.5352-5.1609 0.181-118.88c0.0906-65.372-0.0905-119.61-0.5432-120.51-0.90546-1.8109-4.3461-2.0825-5.9759-0.45277-0.8149 0.81497-1.0865 24.719-1.0866 101.86l6e-5 100.78-199.65-2e-4h-199.65v-9.9597l17.928-3e-4c9.8692 3e-4 20.372-0.4524 23.36-0.9956 21.368-3.8935 34.95-26.529 28.612-47.536-3.4406-11.318-10.05-19.014-21.006-24.266l-5.8853-2.8069-21.459-0.2718-21.549-0.362v-71.168c0-68.089 0.09057-71.439 1.7203-75.06 1.0865-2.3542 3.169-4.7084 5.6137-6.3381l3.8934-2.5352 162.71-0.2717c161.53-0.1809 162.8-0.1809 163.79-1.9918 0.72435-1.2676 0.72435-2.3542 0-3.6218-0.996-1.8109-1.8109-1.8109-163.25-1.7204-89.276 0-163.25 0.3622-164.52 0.7245zm30.966 170.67c9.6882 2.2634 17.294 8.9637 21.278 18.742 1.9014 4.7082 2.173 14.849 0.4527 20.463-2.5352 8.4206-11.227 17.113-19.195 19.286-2.3541 0.6338-33.863 0.8147-94.346 0.7241l-90.815-0.2717-4.7988-2.6258c-5.8853-3.2595-9.6882-7.4245-12.767-14.125-3.3501-7.1531-3.3501-18.2 0-25.352 1.2676-2.8069 3.6217-6.5193 5.161-8.2395 3.3501-3.803 10.503-7.8772 15.755-8.8733 2.173-0.4526 42.193-0.8147 89.004-0.9053 68.089-0.0906 86.107 0.1809 90.272 1.177zm358.37 99.236c0 16.026-0.45266 17.837-5.4326 22.093-1.5392 1.2676-4.346 2.7163-6.1569 3.2596-2.3541 0.7243-59.034 0.9055-189.42 0.7243-180.91-0.2717-186.16-0.362-189.51-1.9919-1.9919-0.9961-4.6177-3.3501-5.8853-5.3421-2.3541-3.5312-2.4447-4.165-2.7164-18.471l-0.27161-14.759h199.65l199.74 2e-4v14.487zm-150.76 40.473c0.90544 3.8933 3.3501 14.94 5.5231 24.628 2.1731 9.6883 3.8029 17.747 3.6219 17.928-0.0906 0.1809-26.348 0.1809-58.22 0.0903l-57.948-0.2715 1.5392-6.7908c0.90546-3.7124 3.3501-14.849 5.4326-24.718l3.8933-17.837h94.708l1.4487 6.9719zm47.445 52.606c4.4367 2.1734 6.4286 5.4329 7.0624 11.228 0.45274 4.3459 0.27165 5.2515-1.4487 6.9717l-1.9014 1.9013h-99.96c-54.96 0-100.59-0.2717-101.41-0.5434-1.1771-0.4526-1.4487-1.992-1.4487-7.1528 0-5.3421 0.36212-6.972 1.992-9.0545 3.9839-5.0705-0.18108-4.8894 100.78-4.9797 87.012 0 93.441 0.0906 96.338 1.6296z"/> <path d="m211.84 1126.5c-0.45273 0.9959-0.90543 3.4407-0.90543 5.5232v3.7122l-2.8068-1.5391c-2.2636-1.0867-3.3501-1.2678-4.9799-0.4529-3.8934 1.7205-2.1731 6.3382 3.169 8.3301l2.2636 0.9055-3.5312 1.9917c-2.8974 1.6299-3.6217 2.5354-3.6217 4.6179 0 3.8028 2.3541 4.8895 6.2475 2.9878l3.2596-1.539-3e-5 3.8933c0 4.3462 1.1771 6.0664 4.2556 6.0664 2.6258 0 4.165-2.8975 3.7123-6.8813-0.27158-2.5352-0.09052-2.9878 0.99603-2.5352 6.0664 2.5352 6.338 2.5352 8.1489 0.8149 1.0865-0.9055 1.9014-2.1731 1.9014-2.8069 0-1.0866-2.4447-3.35-5.9759-5.4326-1.5393-0.9055-1.4487-1.0864 1.1771-2.5351 4.2556-2.1731 5.161-4.3462 3.0785-7.0625-1.8108-2.1731-1.8108-2.1731-8.2395 0.5432-1.1771 0.4526-1.3581-0.0906-1.0865-2.9878 0.18106-1.9014-0.09055-4.3462-0.63382-5.4326-1.3581-2.4448-5.161-2.5354-6.4286-0.1812z"/> <path d="m263.09 1126.3c-0.90545 0.8149-1.4487 2.988-1.4487 5.4326 0 2.1731-0.18109 3.9839-0.45275 3.9839-0.36213 0-1.7203-0.6338-3.2595-1.4485-3.1691-1.6299-5.8854-0.9961-6.7002 1.539-0.72439 2.0826 0.72434 4.0745 4.3461 6.2478l2.5353 1.6299-3.4407 1.6297c-2.5352 1.2678-3.5312 2.3542-3.7123 4.165-0.45273 3.6218 3.0785 5.1611 7.153 3.0786 1.5392-0.8149 2.9879-1.4487 3.169-1.4487 0.18103 0 0.36212 1.9014 0.54315 4.165 0.54334 7.9678 6.3381 7.9678 6.8814 0.0904l0.27167-4.2554 2.6258 1.3581c3.6217 1.9014 5.9758 1.7203 7.6056-0.6337 1.8109-2.5355 0.54328-4.7989-3.6218-6.7911l-3.0785-1.539 3.4407-1.9014c2.6257-1.449 3.3501-2.4451 3.3501-4.437 0-4.0745-2.4447-4.9797-6.7908-2.6257l-3.6217 1.9013v-4.7986c0-3.8935-0.36218-5.0705-1.7203-5.8855-2.2636-1.177-2.4447-1.177-4.0745 0.5433z"/> <path d="m313.25 1126.5c-0.45276 0.9961-0.90546 3.4407-0.90546 5.5232v3.803l-3.0785-1.9017c-3.8029-2.4445-5.5232-2.354-7.2435 0.0906-1.7203 2.4449-0.6338 4.7083 3.7124 7.2439l3.169 1.9014-3.0785 1.6299c-4.0744 2.0822-5.5231 3.9839-4.7988 6.1567 0.90538 2.8069 4.4366 3.3501 8.1489 1.0867l3.169-1.8113v4.7991c0 5.5232 1.4487 7.4245 4.8893 6.519 1.7203-0.4526 2.4446-1.3581 2.8974-3.7121 0.27161-1.7205 0.36219-3.9839 0.09052-4.98-0.54328-2.1731 0-2.2637 3.7123-0.3621 3.2595 1.6297 6.1569 0.9959 6.9718-1.3584 0.81488-2.5351-0.27162-4.2556-3.7123-6.0664-3.169-1.7205-3.9839-3.0786-1.8108-3.0786 2.2635 0 5.9759-3.7122 5.9759-5.8853 0-3.6216-3.0786-4.5271-7.334-2.354-1.9919 1.0864-3.8029 1.9014-4.0745 1.9014s-0.2716-1.6299 0.09065-3.5312c0.36212-2.0826 0.18103-4.346-0.45275-5.4327-1.2676-2.4445-5.0704-2.5351-6.338-0.1811z"/> <path d="m363.95 1126.5c-0.45262 0.9961-0.90539 3.4407-0.90539 5.5232v3.6218l-3.7123-1.9014-3.8028-1.9013-1.8109 1.9013c-1.6298 1.5391-1.7203 2.1731-0.81488 4.1651 0.63379 1.3581 2.5352 2.9878 4.4366 3.7121l3.2597 1.4488-3.4407 1.9013c-4.4366 2.5352-5.7948 4.6177-4.4366 6.7005 1.3582 2.1731 4.2556 2.4446 7.5151 0.7243l2.8068-1.4489v3.9841c0 4.3462 1.1771 6.0664 4.165 6.0664 2.3541 0 3.0785-1.5393 3.0785-6.4285 0-3.8935 0.2716-4.0747 3.6218-2.1731 3.5311 1.992 6.2474 1.7205 7.4246-0.9055 1.1771-2.6257 0.09052-4.3462-3.9839-6.4287-3.1691-1.6296-3.2596-2.7163-0.27167-3.4404 3.2595-0.8152 5.4326-4.4368 4.0744-6.7911-1.2676-2.354-4.165-2.4445-7.9679-0.0905l-2.9879 1.811 0.18109-4.4367c0.27155-4.8895-1.0866-7.334-3.8028-7.334-0.90546 0-2.0825 0.8149-2.6258 1.7202z"/> <path d="m532.81 969.53c-11.137 6.1568-28.069 13.581-37.032 16.207-9.4164 2.7164-23.632 4.8894-33.139 5.161-3.7123 0.09057-7.7868 0.54323-8.8733 0.90539l-2.173 0.81494 0.36218 37.304c0.36213 34.226 0.54328 38.209 2.4446 47.173 5.3421 25.896 16.932 47.354 35.131 65.01 10.05 9.6883 20.644 16.75 37.938 25.352l12.857 6.3379 4.7988-1.9919c13.581-5.2515 33.32-17.022 44.004-26.076 15.936-13.582 29.608-35.312 35.946-57.405 4.4365-15.302 5.1609-24.175 4.8893-61.751l-0.27166-34.407-8.1489-0.72434c-28.34-2.4446-39.386-5.6136-66.821-19.286-7.4244-3.7123-13.672-6.7003-14.034-6.6098-0.36215 0-3.8934 1.8109-7.8773 3.984zm43.914 20.825c10.412 3.7123 23.541 6.6098 35.493 7.8774l10.865 1.0864-0.45265 34.95c-0.3623 28.702-0.63391 36.036-1.992 41.65-2.6258 11.408-5.8853 20.916-10.05 29.336-12.223 24.447-29.879 41.016-58.853 55.322l-10.684 5.2517-12.133-6.157c-16.117-8.0583-27.163-15.573-36.036-24.447-15.302-15.121-24.447-31.509-29.698-52.968-3.4407-14.034-4.1651-24.085-4.165-55.05v-28.069l7.0624-0.54294c23.179-1.9921 38.934-6.7003 63.924-19.286l10.775-5.4326 14.578 6.972c8.0584 3.8932 17.656 8.1488 21.368 9.507z"/> <path d="m528.65 993.07c-16.841 8.5113-35.584 14.487-50.795 16.298-2.8974 0.36206-5.7043 1.2676-6.2475 1.9013-1.6298 1.992-0.45276 50.976 1.4487 61.208 6.157 33.954 25.895 59.125 59.034 75.785 4.165 1.9919 8.1489 3.7122 8.9638 3.7122 2.2636 0 21.549-10.322 28.431-15.211 20.101-14.215 33.954-35.855 39.477-61.751 1.8108-8.6924 2.988-61.751 1.3581-63.743-0.5432-0.6337-3.4406-1.4486-6.338-1.8109-14.578-1.6298-34.044-8.0584-51.881-16.932-5.8854-2.988-10.956-5.3421-11.318-5.2516-0.4527 0-5.8852 2.6258-12.133 5.7948zm36.127 13.582c10.503 4.1649 19.829 6.9719 29.155 8.6017 3.2596 0.5433 6.8813 1.2676 8.0584 1.4487l2.0825 0.4528-0.4527 24.628c-0.36225 20.01-0.8149 26.167-2.2637 32.777-4.0744 18.652-11.68 32.867-24.085 45.272-8.8733 8.8733-16.75 14.487-28.883 20.463l-7.6056 3.803-6.7003-3.4407c-16.66-8.5112-27.344-17.022-36.127-28.702-6.6097-8.6921-9.9597-15.211-13.581-25.896-4.4366-13.31-5.5233-21.912-5.8853-46.63-0.1811-12.314-0.27166-22.364-0.0905-22.364 1.6298 0 16.932-3.1691 22.274-4.7082 8.6921-2.3542 22.274-7.7868 32.415-12.857l7.8773-3.9839 7.0624 3.6216c3.8933 1.9014 11.499 5.3422 16.751 7.5152z"/> <path d="m533.63 1026.7c-8.9638 3.1689-15.03 11.952-15.03 21.64 0 6.2475 1.5391 10.594 5.4325 15.03l2.7164 3.0783-1.7203 9.0545c-4.2555 22.998-4.7989 26.62-3.5312 28.068 1.7203 2.0826 38.481 2.0828 39.658-0.0903 0.81488-1.5393-0.54326-12.495-3.5312-27.435l-1.9015-9.3261 2.2637-2.4449c6.5191-6.8811 8.0584-17.565 3.7123-26.167-5.2516-10.503-17.113-15.302-28.068-11.408zm15.121 8.511c9.326 4.7988 10.412 18.018 2.0825 25.352-1.8108 1.5391-3.0785 3.5312-3.0785 4.7082s1.2677 7.9678 2.7163 15.211c1.4488 7.2437 2.7163 13.854 2.7163 14.668 0 1.4488-1.177 1.6297-12.133 1.6297-11.046 0-12.133-0.1809-11.771-1.6297 0.1811-0.8149 1.6298-8.1489 3.169-16.207l2.8975-14.759-3.7124-3.9839c-6.1568-6.7002-7.0623-14.034-2.6256-20.463 4.165-6.1569 12.676-8.0583 19.738-4.5273z"/> <path d="m816.58 1030c-3.8934 2.5352-3.5313 1.9919-32.234 51.791-37.304 64.648-34.226 58.853-34.135 65.373 0.09055 6.7907 2.9879 11.952 8.5111 14.758 3.4406 1.7205 5.1609 1.811 65.825 1.811 57.495 0 62.566-0.0908 65.372-1.6301 7.0623-3.531 10.775-12.223 8.6923-20.191-0.54336-2.1731-11.228-21.549-23.632-42.918-12.495-21.459-26.077-44.729-30.151-51.791-10.05-17.384-12.133-19.286-20.825-19.286-2.9879 0-5.2514 0.6338-7.4244 2.0825zm12.585 6.7004c1.0867 0.9053 11.952 18.924 24.266 40.111s25.805 44.366 30.06 51.61c9.5071 16.298 10.322 19.92 5.3421 24.9l-3.1691 3.1689h-122.6l-2.7164-2.7163c-2.5352-2.5352-2.7163-3.1689-2.354-7.5151 0.3621-3.9839 2.1729-7.6963 12.042-24.628 6.3381-10.956 15.664-27.072 20.644-35.765 23.541-40.745 28.068-48.441 29.517-49.527 2.0825-1.6298 6.8814-1.4487 8.9638 0.3623z"/> <path d="m821.74 1068.2c-0.27176 0.8149-0.54336 12.223-0.54336 25.352 0 25.624 0.0906 26.258 4.7082 25.624l2.0825-0.2717v-51.61l-2.8069-0.2715c-1.992-0.1812-2.9879 0.1811-3.4405 1.177z"/> <path d="m822.28 1132.7c-2.1731 0.9055-3.0785 4.7988-1.6298 7.1531 1.9015 2.8069 4.7084 3.531 7.3341 1.8108 5.523-3.6219 0.54321-11.499-5.7044-8.9639z"/> <g fill="#63a8ba"> <path d="m341.22 1197.9c-0.06811 0-0.1333 0.0274-0.18104 0.076-0.04766 0.0486-0.07384 0.1142-0.07256 0.1823l0.27161 14.759c0.27125 14.284 0.35553 15.002 2.7589 18.607h-6e-5c1.2932 2.0295 3.9509 4.4121 5.983 5.4282l0.0025 0.0012c3.4197 1.6636 8.7839 1.7461 189.62 2.0176 30.841 0.0427 57.398 0.0652 80.278 0.0652 73.772 0 107.35-0.2329 109.21-0.8003h-1.4e-4c1.8418-0.5525 4.6777-2.0159 6.2453-3.3067l0.00354-0.0029c5.0789-4.3401 5.5214-6.271 5.5214-22.286v-14.487c0-0.1401-0.11356-0.2536-0.25364-0.2536l-199.74-3e-4z"/> <path d="m493.7 1245.9c-0.1192 0-0.22234 0.083-0.2478 0.1995l-3.8933 17.837-3.7e-4 0.0017c-2.0826 9.8696-4.5265 21.003-5.4308 24.711l-9.8e-4 0.0039-1.5392 6.7908c-0.01696 0.0749 9.7e-4 0.1538 0.04884 0.2138 0.04784 0.0603 0.12047 0.0955 0.19737 0.096l57.948 0.2715h4.4e-4c13.247 0.0376 25.402 0.0595 35.261 0.0595 13.364 0 22.286-0.0395 22.968-0.1435h0.01023c0.0187-0.0022 0.09707-0.0208 0.1581-0.0799h9e-4c0.07814-0.0771 0.0844-0.1818 0.0854-0.1914 0.0752-0.6941-1.5407-8.6213-3.6381-17.972-0.8045-3.5869-1.5479-6.9192-2.3396-10.467-0.6493-2.9094-1.3422-6.0144-1.8595-8.3205-0.55867-2.4905-1.0308-4.5789-1.3231-5.8362h-7e-5l-1.4487-6.9719c-0.02448-0.1177-0.12818-0.2022-0.24834-0.2022h-47.354z"/> <path d="m540.96 1303.8-9.906 0.0086-8.6029 0.0073c-78.438 0.0701-78.78 0.1806-82.039 4.5036-0.14202 0.1885-0.26842 0.3565-0.42622 0.5572l-3e-4 5e-4c-1.6858 2.154-2.0458 3.8598-2.0458 9.2107 0 5.0551 0.23035 6.8584 1.6113 7.3896l0.00799 0.0029c0.01429 0.0049 0.02851 0.0088 0.04169 0.0118l0.00188 4e-4c1.2705 0.2779 46.783 0.5452 101.45 0.5462l99.96-1e-3c0.06726 0 0.13176-0.0268 0.17932-0.0745l1.9014-1.9011 0.02357-0.0271 5.4e-4 -7e-4h0.00346c1.7795-1.7881 1.9464-2.8079 1.494-7.1497l-1.4e-4 -0.0012c-0.64055-5.8567-2.6682-9.2041-7.1952-11.424h-2.6e-4c-2.9718-1.5788-9.518-1.6594-96.457-1.6594z"/> </g> <g fill="#fbc53b"> <path d="m541.35 1025.6c8.3139 0 16.138 4.6458 20.121 12.612l4.9e-4 9e-4c4.2986 8.5074 2.7743 19.076-3.6701 25.878l-0.00194 2e-3 -2.2637 2.4448c-0.0555 0.0598-0.07875 0.1428-0.06245 0.2229l1.9015 9.3262c3.0025 15.012 4.3153 25.83 3.5556 27.265h-1e-4c-0.51365 0.9216-9.906 1.506-19.705 1.506-9.5643 0-18.782-0.5493-19.533-1.4584l-0.0047-0.0056c-1.1607-1.3265-0.68894-4.7317 3.5895-27.854h1e-4l1.7203-9.0545c0.01466-0.0772-0.0072-0.1565-0.059-0.2153l-2.7164-3.0784h-1e-4c-3.8489-4.3862-5.3689-8.6714-5.3689-14.862 0-9.5847 6.0022-18.269 14.861-21.401h4.5e-4c2.5302-0.8994 5.1041-1.3291 7.6358-1.3291zm-0.38674-30.311c-0.0392 0-0.0785 0.00916-0.11454 0.02735l-7.8773 3.9839h-6e-5c-10.13 5.0651-23.695 10.49-32.366 12.839l-0.00391 0.0011c-5.3466 1.5405-20.615 4.6983-22.204 4.6983-0.2198 0-0.27272 0.23836-0.26783 0.23836h0.00158c-0.06457 0.3025-0.08612 1.7631-0.08612 3.9807 0 4.0416 0.07747 10.796 0.18927 18.402 0.3622 24.728 1.4496 33.36 5.8983 46.706l4.2e-4 0.0012c3.6296 10.707 6.9923 17.252 13.62 25.968 8.8113 11.718 19.528 20.251 36.213 28.775h4e-5l6.6998 3.4404c0.03638 0.0188 0.07614 0.0281 0.11594 0.0281 0.0388 0 0.07767-9e-3 0.1134-0.0268l7.6041-3.8023h6e-5c12.156-5.987 20.057-11.617 28.951-20.511 12.441-12.441 20.069-26.701 24.153-45.397 1.4549-6.6377 1.9073-12.82 2.2695-32.826l0.4527-24.628c0.0022-0.121-0.08143-0.2268-0.1997-0.2525l-2.0825-0.45274-0.0153-0.00281c-0.5074-0.07815-1.4805-0.2594-2.692-0.48511-1.5758-0.29358-3.5092-0.65404-5.3615-0.96284h1e-4c-9.3042-1.626-18.611-4.4266-29.102-8.5862h-4e-5c-5.246-2.1708-12.841-5.6067-16.732-7.5066h-1.4e-4l-7.0625-3.6216c-0.0363-0.01862-0.0759-0.02796-0.1156-0.02796z"/> </g> <g fill="#fc9535"> <path d="m540.81 987.38c0.4933 0 5.4483 2.2994 11.246 5.2428l7e-4 4.5e-4c17.844 8.8766 37.323 15.31 51.916 16.942h-3.5e-4c2.9122 0.3642 5.7591 1.1784 6.2706 1.775h-6e-5c1.5894 1.9764 0.43316 54.945-1.381 63.653-5.5182 25.871-19.358 47.488-39.435 61.687h-1.7e-4c-6.8918 4.897-26.147 15.192-28.37 15.192-0.78416 0-4.7352-1.7011-8.9166-3.7009h-2e-4c-33.113-16.647-52.828-41.792-58.978-75.71l-1e-4 -5e-4c-1.9052-10.252-3.0615-59.146-1.4721-61.12h-6e-5c0.51238-0.5976 3.2736-1.5021 6.1806-1.8654h-1.3e-4c15.226-1.8126 33.98-7.7929 50.83-16.309l1.4e-4 -1e-4c6.2722-3.1816 11.666-5.7835 12.086-5.7835l0.018-0.00224h0.00251l0.00134-1.3e-4h-0.00287l9.7e-4 -1.3e-4zm0.02-13.597-0.0923 1e-3 -10.775 5.4326h-5e-5c-24.98 12.581-40.722 17.284-63.886 19.275h1.8e-4l-7.0616 0.5429c-0.05458 0.00422-0.0967 0.04969-0.0967 0.10435v28.069c-5e-5 30.966 0.7242 41.028 4.168 55.075 5.256 21.477 14.41 37.883 29.726 53.017 8.8832 8.8833 19.941 16.405 36.063 24.466h-5e-5l12.132 6.1565 0.09355 7e-4 10.684-5.2517h1e-4c28.991-14.314 46.665-30.898 58.901-55.369l2e-4 -5e-4c4.1694-8.4295 7.4309-17.943 10.058-29.358h3e-5c1.3618-5.6284 1.6328-12.978 1.995-41.673l0.45266-34.95c7.4e-4 -0.05434-0.04022-0.1001-0.09426-0.10554l-10.865-1.0864h5e-5c-11.944-1.2668-25.065-4.1626-35.468-7.8715h1.2e-4c-3.706-1.3558-13.302-5.6104-21.359-9.5028l-3.6e-4 -1.6e-4 -14.578-6.9721z"/> </g> <g fill="#fbc53b"> <path d="m214.91 1125c1.2664 0 2.553 0.6121 3.2189 1.8108h-1.7e-4c0.52205 1.0513 0.79438 3.4556 0.61484 5.3409l-1e-5 2e-4c-0.1987 2.1196-0.20675 3.2251 0.57411 3.2981h-2.2e-4c0.02576 0.0024 0.05216 0.0037 0.07866 0.0037 0.18957 0 0.407-0.0591 0.64769-0.1519l0.01053-0.0044 0.00311-0.0015 0.00312-0.0014h5.8e-4c3.4053-1.4387 4.9648-2.093 5.9444-2.093 0.82788 0 1.2328 0.4704 2.0999 1.511h-1.7e-4c1.587 2.0729 1.3819 3.78-0.81329 5.4628-0.59198 0.4539-1.328 0.9048-2.2156 1.358l-0.00446 0.0024c-1.6305 0.8997-2.5363 1.4048-2.2006 2.0132 0.14407 0.2612 0.52252 0.5034 1.0197 0.7961h8e-5c3.5644 2.1021 5.898 4.3196 5.898 5.2966 0 0.5579-0.76316 1.7845-1.8446 2.6856l-0.00766 0.0068c-0.82114 0.7803-1.283 1.1599-2.079 1.1599-1.0114 0-2.5556-0.6081-5.9005-2.0058h-1.4e-4c-0.24171-0.1008-0.46069-0.167-0.64875-0.167-0.53646 0-0.67786 0.4961-0.67786 1.2495 0 0.4104 0.04094 0.9424 0.113 1.615l1.3e-4 1e-3c0.42837 3.7697-0.94239 6.4302-3.187 6.6853h5e-5c-0.11917 0.0134-0.24376 0.0205-0.36861 0.0205-2.9438 0-4.0978-1.5928-4.0978-5.9087l3e-5 -3.8933c0-0.0542-0.02768-0.1045-0.07334-0.1333-0.02566-0.0164-0.05499-0.0247-0.08446-0.0247-0.02293 0-0.04594 0.0051-0.06735 0.0152l-3.2596 1.5393-0.00186 9e-4c-1.2454 0.6082-2.3177 0.9004-3.1936 0.9004-1.7836 0-2.8269-1.2192-2.8269-3.7466 0-1.996 0.66099-2.8601 3.5413-4.4804h1.7e-4l3.5312-1.9917c0.05287-0.0298 0.08394-0.0874 0.07991-0.148-0.00403-0.0605-0.04247-0.1135-0.09883-0.136l-2.2636-0.9055-0.00348-0.0014c-3.9177-1.4607-5.7583-4.2874-5.0227-6.2603 0.26411-0.7085 0.86432-1.3367 1.8624-1.7776l0.00682-0.0032c0.66427-0.332 1.2262-0.4897 1.8095-0.4897 0.8217 0 1.7134 0.311 3.0315 0.9436h-4.6e-4l2.7997 1.5354c0.02365 0.013 0.04977 0.0195 0.07587 0.0195 0.02781 0 0.05561-0.0075 0.08036-0.0222 0.04798-0.0283 0.0774-0.0798 0.0774-0.1357v-3.7122c0-2.0639 0.44845-4.4746 0.88697-5.4485h-4.1e-4c0.5826-1.082 1.7367-1.6277 2.9329-1.6277zm151.67-0.0097c2.3431 0 3.6792 1.9084 3.6792 5.9971 0 0.372-0.0112 0.7631-0.03386 1.1704l-6e-5 0.0024-0.18108 4.4365c-0.0024 0.0581 0.02733 0.1128 0.07738 0.1424 0.02478 0.0146 0.05249 0.0219 0.0802 0.0219 0.02832 0 0.05664-0.0075 0.08179-0.0229l2.9878-1.8111 0.00128-7e-4c1.8527-1.1467 3.47-1.6972 4.7728-1.6972 1.3419 0 2.3561 0.583 2.9731 1.7287l0.00227 0.0039c1.0696 1.854-0.16931 4.6148-2.4958 5.9573h-1.8e-4c-0.45674 0.2634-0.95551 0.4707-1.48 0.6018h1.2e-4c-1.5269 0.3701-2.4633 0.8835-2.2709 1.6772 0.15191 0.627 1.0394 1.3011 2.5086 2.0567l3.7e-4 2e-4c4.062 2.0762 5.0316 3.7251 3.9117 6.2237-0.63886 1.425-1.7365 2.1193-3.185 2.1193-1.1329 0-2.4904-0.425-4.0177-1.2866h-6e-5c-1.3069-0.7419-2.1937-1.1985-2.7812-1.1985-1.0183 0-1.0762 1.2691-1.0762 3.5088 0 4.9185-0.73578 6.2708-2.9207 6.2708-2.8514 0-4.0073-1.5904-4.0073-5.9087v-3.9841c0-0.055-0.02868-0.106-0.07568-0.1348-0.02509-0.0151-0.05347-0.023-0.08192-0.023-0.02483 0-0.04973 0.0059-0.0725 0.0176l-2.8068 1.449-0.00128 5e-4c-1.4049 0.7417-2.7332 1.1035-3.887 1.1035-1.4871 0-2.6877-0.5991-3.4208-1.772l-0.00166-0.0024c-1.1181-1.7146-0.32293-3.4697 2.9902-5.6304 0.42352-0.2761 0.88684-0.5578 1.3907-0.8459h-7e-5l3.4407-1.9012c0.05242-0.029 0.08392-0.0852 0.08136-0.145-0.00264-0.0598-0.03882-0.113-0.09357-0.1372l-3.2596-1.4487-0.00793-0.0034c-1.8734-0.7137-3.7363-2.3186-4.3491-3.6302h-6e-5c-0.87841-1.9323-0.79967-2.4934 0.77961-3.9848l0.00592-0.0061 1.7305-1.8169 3.6984 1.8493-0.00135-7e-4 3.7123 1.9014c0.02264 0.0115 0.04742 0.0173 0.07207 0.0173 0.0285 0 0.05702-0.0078 0.08216-0.0232 0.04688-0.0285 0.07544-0.0796 0.07544-0.1345v-3.6218c0-2.0596 0.4466-4.4639 0.88416-5.4419h-0.00122c0.52429-0.8738 1.657-1.6438 2.4905-1.6438zm-101.54 0.0808c0.45105 0 1.0089 0.2661 2.0486 0.8069h-4.9e-4c1.267 0.7636 1.6359 1.8493 1.6359 5.7453v4.7986c0 0.0552 0.02887 0.1065 0.07617 0.135 0.02502 0.0152 0.05322 0.0227 0.08154 0.0227 0.02514 0 0.05034-0.0058 0.07336-0.018l3.6218-1.9014 0.00176-1e-3c1.5677-0.8491 2.8679-1.2602 3.8797-1.2602 1.715 0 2.6782 1.1902 2.6782 3.7473 0 1.9101-0.66736 2.8635-3.2686 4.2988h-1.3e-4l-3.4407 1.9016c-0.05127 0.0283-0.08263 0.0828-0.08143 0.1414 0.00123 0.0586 0.0348 0.1116 0.08723 0.1377l3.0785 1.539 0.0025 0.0013c3.7404 1.789 5.0042 3.7255 4.0049 5.8147-0.1165 0.2439-0.2636 0.4904-0.44347 0.7421l-0.00135 2e-3c-0.86816 1.2539-1.9327 1.8594-3.291 1.8594-1.1317 0-2.485-0.4214-4.1116-1.2754l-8.6e-4 -5e-4 -2.6257-1.3582c-0.02276-0.0119-0.04766-0.0178-0.0725-0.0178-0.0268 0-0.0536 0.0069-0.0777 0.0205-0.04633 0.0264-0.07635 0.0742-0.0797 0.1275l-0.27168 4.2554h-6e-5c-0.27094 3.9257-1.8348 5.7492-3.2696 5.7492-1.4434 0-3.0245-1.8452-3.2969-5.8403l-4.3e-4 -0.0051-1.9e-4 -0.0018h6e-5c-0.16436-2.0542-0.33124-3.9104-0.52942-4.2055-0.01879-0.0281-0.07275-0.0996-0.17059-0.0996-0.01068 0-0.01575 2e-4 -0.02503 9e-4l-0.0022 3e-4c-0.26244 0.0269-1.7191 0.6736-3.2156 1.4658h-1.2e-4c-1.2344 0.6306-2.4111 0.9202-3.4317 0.9202-2.0948 0-3.5288-1.2112-3.5288-3.2476 0-0.1897 0.01244-0.3874 0.03803-0.5923l4.3e-4 -0.0036c0.17296-1.7298 1.1079-2.7803 3.623-4.0384h-9e-5l3.4407-1.6296c0.05182-0.0246 0.08624-0.0752 0.0899-0.1326 0.00373-0.0571-0.02386-0.1118-0.07208-0.1428l-2.5353-1.6299-0.00413-0.0024c-3.6286-2.1775-4.9585-4.105-4.2783-6.0606l0.00119-0.0036c0.48993-1.5244 1.6902-2.3277 3.2837-2.3277 0.94601 0 2.0353 0.2845 3.1941 0.8804h-1.9e-4l4.2e-4 3e-4c1.5144 0.8015 2.9191 1.4658 3.3315 1.4658 0.07647 0 0.13354-0.0384 0.17034-0.0755h6e-5c0.2981-0.2995 0.44013-2.1018 0.44013-4.0661 0-2.4439 0.54693-4.5508 1.3964-5.3152l0.00897-0.0088c0.90858-0.959 1.3173-1.3186 1.8385-1.3186zm51.27-0.0711c1.2552 0 2.5169 0.6114 3.1366 1.8067l0.0038 0.0068c0.6056 1.0381 0.79352 3.2564 0.4336 5.3262-0.3232 1.6975-0.3846 3.3032-0.12122 3.6228 0.03137 0.0381 0.07842 0.0762 0.14318 0.0889l0.00257 4e-4c0.01544 3e-3 0.02472 0.0037 0.04027 0.0037h0.00758c0.33258-0.0083 2.1787-0.8496 4.1389-1.9187h-2.5e-4c1.521-0.7766 2.8773-1.1496 3.9834-1.1496 1.9271 0 3.1211 1.1286 3.1211 3.3632 0 2.0848-3.6403 5.7276-5.8181 5.7276-0.78566 0-1.3755 0.1794-1.3755 0.6885 0 0.665 1.1808 1.6386 3.111 2.6865l0.00184 1e-3c3.4166 1.798 4.4146 3.4548 3.6355 5.8786h-5e-5c-0.48199 1.3877-1.727 2.156-3.3812 2.156-1.0043 0-2.1573-0.2846-3.3684-0.8899h-1.2e-4c-1.7371-0.8899-2.8236-1.3691-3.4302-1.3691-0.49212 0-0.69104 0.3076-0.69104 0.7834 0 0.2937 0.07031 0.6719 0.18396 1.1265l8.6e-4 0.0032c0.26202 0.9609 0.17718 3.1953-0.09412 4.9138h-1.2e-4c-0.44568 2.3132-1.1406 3.1523-2.7816 3.5842-0.53277 0.1401-1.0125 0.2107-1.441 0.2107-2.215 0-3.2504-1.9038-3.2504-6.5771v-4.7991c0-0.0562-0.02997-0.1082-0.07862-0.1365-0.02448-0.0141-0.05182-0.0212-0.07916-0.0212-0.02704 0-0.05402 0.0068-0.07832 0.0207l-3.1689 1.8113-0.00385 0.0022c-1.5416 0.9399-3.0419 1.3841-4.3215 1.3841-1.7588 0-3.0953-0.8345-3.5952-2.3843l-4.8e-4 -0.0015c-0.67995-2.0398 0.63928-3.8804 4.721-5.9666l2e-3 -9e-4 3.0785-1.6299c0.05035-0.0266 0.0824-0.0784 0.08392-0.1353 0.00153-0.0569-0.02772-0.1101-0.07654-0.1394l-3.169-1.9013-0.00171-1e-3c-4.1116-2.3987-5.1711-4.4712-3.91-6.6331h6e-5c0.0758-0.1299 0.15472-0.2524 0.24707-0.3837 0.86279-1.2259 1.6975-1.8126 2.7744-1.8126 1.0591 0 2.3906 0.5655 4.2548 1.764l0.00238 0.0014 3.0785 1.9016c0.02539 0.0156 0.05413 0.0235 0.08289 0.0235 0.02649 0 0.05298-0.0066 0.0769-0.0201 0.04994-0.0278 0.08094-0.0805 0.08094-0.1376v-3.803c0-2.064 0.44848-4.4744 0.88696-5.4483h-3.6e-4c0.583-1.083 1.7366-1.6277 2.9224-1.6277zm-2.2555-12.927c-6.9465 0-13.801 0.0052-22.084 0.0164h-6e-5c-46.794 0.0906-86.841 0.4512-89.036 0.9087h-4.5e-4c-5.2848 1.0034-12.467 5.0945-15.84 8.9233h-6e-5c-1.5518 1.7347-3.914 5.4617-5.1863 8.2788-3.369 7.1954-3.3688 18.289 9.2e-4 25.484h-5e-5c3.0912 6.7275 6.9165 10.919 12.833 14.196l7e-4 5e-4 4.7988 2.6257 0.07525 0.0193 90.815 0.2717h2.5e-4c9.71 0.0147 18.285 0.022 26.543 0.022 43.163 0 65.835-0.2105 67.845-0.7515l5e-4 -2e-4c8.0235-2.1883 16.754-10.923 19.305-19.392 1.7296-5.6438 1.4593-15.822-0.45728-20.568l-1.8e-4 -5e-4c-4.0016-9.822-11.646-16.56-21.387-18.836h-2.4e-4c-3.6964-0.8838-18.176-1.1976-68.225-1.1976z"/> </g> <g fill="#66bee6"> <path d="m797.99 947.72c-1.1002 0-1.2909 0.5292-1.6371 1.4774-0.0515 0.14125-0.10327 0.2828-0.1654 0.4443l-0.0028 0.0083c-0.261 0.8486-1.0861 3.2004-2.0386 5.9158-0.35276 1.0057-0.7649 2.1803-1.1291 3.2246-3.164 8.5871-10.218 20.523-16.544 27.664l-2.6e-4 3.1e-4 -4.7071 5.3418c-0.03306 0.0376-0.04116 0.0911-0.02051 0.13673 0.0177 0.03917 0.05371 0.06637 0.09535 0.07327h-0.00807c0.00917 0.00205 0.01843 3e-3 0.02771 3e-3 0.0127 0 0.02526-0.00186 0.03736-0.0055h-0.00806l0.00952-0.0015 3.8016-1.1766h-1e-4c16.862-5.1679 29.466-12.966 41.524-25.658l0.00364-0.00385 5e-4 -5e-4c4.3485-4.6148 7.9745-8.7668 8.0845-9.2742v-4.4e-4c0.00266-0.01266 5e-3 -0.02722 5e-3 -0.04413 0-0.01453-0.0015-0.03009-0.0044-0.04513-0.2008-1.054-12.188-4.9981-20.649-6.7794-0.55944-0.12575-0.6941-0.15625-1.2064-0.27185-0.5586-0.1261-0.43776-0.099-0.96144-0.21674-2.3513-0.52836-3.6911-0.81146-4.5065-0.81146z"/> <path d="m753.66 943.86c-0.0315 0-0.06215 0.0117-0.0857 0.0331-0.0265 0.0242-0.04164 0.0585-0.04164 0.0944v24.99c1.4e-4 13.267 0.33728 24.321 0.71374 24.942 0.0117 0.0192 0.05445 0.08543 0.13807 0.08543 2.2441 0 14.053-9.5669 18.207-14.624l2.6e-4 -3.6e-4c6.7599-8.2917 17.635-30.113 16.035-32.653l-0.00596-0.00856c-0.0072-0.00963-0.0153-0.0186-0.02406-0.027h1.2e-4c-0.42236-0.40817-5.7976-1.0247-12.024-1.2915-4.7732-0.2017-10.266-0.5545-14.022-0.7959-1.2894-0.083-2.3888-0.1536-3.1737-0.19974h-6e-4l-5.7041-0.54336c-0.00404-3.4e-4 -0.0082-5e-4 -0.0122-5e-4z"/> <path d="m745.52 943.95c-0.00125 0-0.00234 1e-4 -0.00344 1e-4l-3.3502 0.09043-0.00159 7e-5c-11.392 0.45226-28.807 1.7192-29.827 2.0901-1.1029 0.40135-0.87294 1.8523 0.68676 6.1386 0.0768 0.21095 0.15003 0.41035 0.2333 0.6352l5e-4 0.0014c5.0749 13.231 13.778 26.744 21.497 33.101l8.4e-4 7e-4c3.7796 3.0594 9.8013 7.0906 10.764 7.0906 0.0781 0 0.12317-0.05526 0.14123-0.0824v4e-5c0.20847-0.31171 0.29177-2.7339 0.29177-5.9653 0-1.1627-0.01125-2.4307-0.03395-3.77-0.06019-3.6057-0.12075-9.6777-0.18079-15.72-0.03016-3.0279-0.06079-6.1055-0.09096-8.8168v0.0014-14.668c0-0.03442-0.0139-0.06732-0.03856-0.09131-0.02394-0.02319-0.05578-0.03615-0.08884-0.03615z"/> <path d="m701.13 947.8c-1.7488 5e-5 -4.4329 0.6289-8.8474 1.6616-0.50585 0.11836-1.0214 0.23897-1.5737 0.36757v3e-5c-9.5965 2.2422-15.944 4.5194-15.944 5.919 0 1.4316 8.8536 11.347 13.806 15.669l0.00135 0.0012c6.526 5.529 11.696 9.0666 19.492 12.965 5.4258 2.7127 19.126 7.8 20.972 7.8 0.10654 0 0.16635-0.0816 0.16635-0.1692 0-0.00986-2.5e-4 -0.01376-0.00122-0.02304v-5.6e-4c-0.03443-0.3404-1.1962-1.7905-2.7889-3.4631-8.5883-9.0405-16.456-22.333-20.615-34.812-0.1023-0.307-0.1668-0.5026-0.26113-0.78844v4e-5c-0.09437-0.28593-0.13307-0.4038-0.22242-0.672-1.0358-3.107-1.6328-4.4556-4.185-4.4556z"/> <path d="m676.97 905.92-19.467 0.09051c-0.03574 1.8e-4 -0.06984 0.01538-0.09384 0.04199-0.0241 0.02661-0.0358 0.06206-0.0324 0.09772l0.54323 5.6137 2.7e-4 0.00189c1.2691 11.331 5.9816 26.562 10.521 33.916l1.7184 2.9845c0.0233 0.04066 0.06615 0.0639 0.11046 0.0639 0.01709 0 0.03444-0.00347 0.05104-0.01074l4.3459-1.9016c4.6101-1.9884 21.522-6.2366 24.758-6.2366h1e-4c1.2295 0 1.7881-0.1933 1.7881-1.3337 0-0.4421-0.0802-1.0288-0.21375-1.8034v7e-5c-2.3546-13.675-3.349-20.094-3.8015-25.342l-2.3e-4 -0.00234-0.6338-6.0663c-0.0067-0.0649-0.0615-0.1142-0.1267-0.1142z"/> <path d="m745.52 905.92-20.372 9.6e-4 -20.372-9e-4c-0.0338 0-0.06615 0.01336-0.0901 0.0373-0.0239 0.0239-0.03733 0.0563-0.03733 0.09014v3.1691c0 3.9063 2.3566 20.126 3.8071 25.566l0.9955 3.982c0.01426 0.05714 0.06565 0.09654 0.12364 0.09654 0.00376 0 0.00781-1.6e-4 0.01171-5e-4l6.8814-0.6337h7.3e-4c3.9092-0.2729 12.023-0.81396 18.102-1.1769h6e-4l11.227-0.5434c0.06883-0.0033 0.12254-0.06076 0.1213-0.1297l-0.09055-4.7986v0.00236c0-1.0078-0.01465-2.7319-0.03199-4.7761-0.02586-3.065-0.05856-6.9348-0.05856-10.345v-0.0011l-0.09054-10.413c-6.1e-4 -0.06997-0.0575-0.12636-0.12746-0.12636z"/> <path d="m753.66 905.92c-0.07034 0-0.12744 0.0571-0.12744 0.1275l6e-5 15.392v15.393c0 0.03382 0.01344 0.06616 0.03734 0.09009 0.02394 0.02393 0.0563 0.03727 0.0901 0.03727l7.5151-9.5e-4c4.0685 1.5e-4 12.305 0.45255 18.188 0.9956l0.00196 1.9e-4c3.4297 0.26376 6.6199 0.40496 8.7718 0.40496 1.5049-6e-5 2.5824-0.0641 2.8164-0.2513l0.01475-0.0138c0.94277-1.0371 3.2953-15.228 4.1072-24.612l1e-4 -1.2e-4 0.6337-7.4246c0.00304-0.03556-0.00905-0.0707-0.0332-0.097-0.02407-0.0263-0.0581-0.0413-0.0939-0.0413l-21.006-1.6e-4z"/> <path d="m802.56 905.92c-0.07043 0-0.12743 0.0571-0.12743 0.12746v5.2515c1e-4 4.697-1.809 19.264-3.1663 26.052l-0.6333 2.8038c-0.00757 0.0337-0.00123 0.069 0.0177 0.0979 0.01892 0.02886 0.04883 0.0489 0.08277 0.05535l8.0582 1.5392 5e-4 4e-5c4.3401 0.81376 11.395 2.7133 15.555 4.1601l0.0011 3.7e-4 7.5151 2.5355c0.01345 0.00454 0.02724 0.00674 0.0408 0.00674 0.0481 0 0.0936-0.0274 0.1152-0.073l3.0785-6.5193 6e-4 -0.0013c4.0792-8.8835 7.5247-21.213 8.2506-29.287l1e-4 -1e-3 0.5432-6.6097c0.00294-0.03554-0.00914-0.07064-0.0333-0.0968-0.02406-0.02619-0.0581-0.04108-0.09376-0.04108z"/> <path d="m829.39 857.11c-0.01357 0-0.02614 8e-4 -0.03945 0.00263h-0.00865c-0.62074 0.02276-3.5165 1.024-6.4547 2.1814-2.9817 1.0838-9.765 2.9833-15.192 4.159h1.2e-4c-7.807 1.6482-9.6454 2.2212-9.3587 3.5798 0.00784 0.03724 0.017 0.07361 0.02773 0.11107l0.00137 0.00435c1.0814 3.3349 3.1632 17.084 3.7064 23.965l1e-4 0.0011 0.6338 7.2437c0.00575 0.0654 0.06007 0.11575 0.12574 0.11636l19.286 0.18094h6.1e-4l19.376 0.0906h7.6e-4c0.03354 0 0.06594-0.01336 0.08984-0.0371 0.02405-0.02393 0.0375-0.05646 0.0375-0.09034v-2.8974c1e-4 -7.358-3.9-22.496-8.4311-32.556-1.3999-3.2374-3.1227-6.0549-3.802-6.0549z"/> <path d="m790.12 866.18c-0.9059 4e-5 -2.9834 0.2106-7.7366 0.6915l-2.0168 0.20387c-3.9832 0.36218-11.588 0.99573-16.925 1.2673l-0.0017 6e-5 -9.7787 0.6337c-0.06701 0.00436-0.11916 0.0601-0.11916 0.1273v14.396l-1e-4 14.396c0 0.07004 0.05664 0.1269 0.1267 0.12735l15.664 0.09058h7e-4c5.4458-3e-5 11.211 0.07397 15.383 0.12747 2.3454 0.03006 4.1942 0.0537 5.1703 0.0537h-0.00295l4.9782 0.1812c0.0016 6e-5 0.0031 6e-5 0.00467 6e-5 0.03403 0 0.06703-0.01366 0.09093-0.03816 0.02516-0.02556 0.03834-0.0605 0.0364-0.09624l-0.2716-4.9801-1.4e-4 -0.0015c-0.18166-2.7231-1.0874-9.7877-2.0836-15.675-0.38354-2.4924-0.7283-4.6802-1.0289-6.5886-0.19437-1.2338-0.3754-2.3843-0.49-3.1291v-5e-5c-0.1292-0.83911-0.2-1.3311-0.2-1.3998 0-0.305-0.2264-0.3884-0.7994-0.3884z"/> <path d="m708.75 866.71c-0.063 0-0.11734 0.0465-0.1261 0.10996l-1.992 14.396-1e-4 2.7e-4c-1.0853 7.9595-1.993 14.945-1.993 15.5 0 1.0745 4.9839 1.3044 20.489 1.3044h0.0106l20.372 1e-4c0.0338 0 0.0662-0.0134 0.0901-0.03734 0.0239-0.02392 0.03736-0.05626 0.03736-0.09006l1.4e-4 -14.306v-14.396c0-0.06793-0.05337-0.12396-0.12124-0.12731l-11.046-0.54325h-8.6e-4c-6.171-0.3632-14.374-0.9041-18.375-1.1767h-3.6e-4l-7.334-0.63394c-0.0038-3e-4 -0.00747-4.6e-4 -0.0111-4.6e-4z"/> <path d="m669.82 856.12c-0.06984 0-0.11304 0.0575-0.1123 0.0575-0.16214 0.19513-1.1863 2.3985-2.5333 5.2917-0.333 0.71544-0.6372 1.3691-1.0012 2.1489l-8.7e-4 0.00174c-3.8979 8.7026-7.4342 21.756-7.888 29.381l-1.5e-4 0.0011-0.27161 5.3422c-0.00184 0.03613 0.01172 0.07135 0.03736 0.09686 0.02405 0.02381 0.0563 0.03704 0.08984 0.03704 0.00246 0 0.00486-5e-5 0.00733-2e-4l3.1691-0.1811h-6.3e-4c1.7141-0.0903 10.588-0.1809 19.732-0.1809h7.4e-4l16.479-0.09055c0.07019-3.5e-4 0.12685-0.05731 0.12685-0.12745v-3.8934c0-2.0705 0.6324-7.6774 1.3567-12.385v-5e-5c0.30083-1.9546 0.62176-3.9804 0.92733-5.9096 0.25-1.5781 0.5045-3.1869 0.682-4.3402 0.1256-0.8169 0.2273-1.499 0.292-1.9739l0.5433-3.6216c0.0099-0.06566-0.03234-0.128-0.09704-0.14305l-9.3261-2.1733h-1.2e-4c-5.0675-1.1763-12.121-3.2567-15.644-4.702l-2e-4 -1e-4 -0.01455-0.00594c-3.4432-1.4127-6.3032-2.5755-6.5152-2.6245l-3.5e-4 -1e-4c-0.00465-0.00105-0.01805-0.0046-0.03711-0.0046z"/> <path d="m729.08 812.09-6e-4 2.5e-4 6e-4 -2.5e-4zm-0.00134 3.5e-4 -0.03396 0.0063 0.02675-0.0063zm-0.04506-0.2465-0.0128 0.0024h-0.0077c-0.0067 8e-4 -0.0121 0.0018-0.01367 0.0021l-2.3e-4 7e-5c-0.18873 0.03686-2.9244 0.97003-6.2782 2.1137l-1.246 0.42484-9.6e-4 3.1e-4c-16.317 5.7108-30.823 15.32-40.89 27.11-3.1129 3.6465-5.7617 7.0968-5.8232 7.5686-9.6e-4 0.00796-0.00196 0.0199-0.00196 0.02913 0 1.5036 19.393 7.6511 25.828 8.3662l4.7e-4 5e-5c0.3551 0.03808 0.6674 0.06605 0.9501 0.06605 1.8072 0 2.2484-1.1829 4.2546-7.1238l1.2e-4 -2.4e-4c4.3405-12.931 9.8552-22.514 18.717-32.824 2.513-2.8479 4.5086-5.258 4.6426-5.533h3.7e-4c1e-3 0 0.0183-0.0334 0.0172-0.07547h-3.5e-4c0-0.07037-0.05715-0.12743-0.12745-0.12743z"/> <path d="m745.52 810.85c-1.3328 0-8.3511 5.4002-13.036 9.9049-6.0778 5.8057-10.885 12.428-15.147 20.95h1.2e-4c-2.7117 5.3334-6.3515 14.779-6.3515 16.355 0 0.0457 0.01634 0.0856 0.03698 0.1166h-1.4e-4c0.65945 0.99365 19.132 2.727 27.797 2.728l7.153-9.5e-4c0.0704 0 0.1274-0.05705 0.1274-0.12745v-24.899c0-13.286-0.1681-24.335-0.4436-24.931-0.0022-0.0047-0.0393-0.09633-0.1366-0.09633z"/> <path d="m753.66 809.85c-0.02244 0-0.04504 0.0059-0.06504 0.0178-0.0387 0.02296-0.0624 0.0647-0.0624 0.1097v25.533l1e-4 25.534c0 0.03506 0.0144 0.06856 0.03994 0.09256 0.02366 0.0224 0.05506 0.0348 0.08752 0.0348 0.00234 0 0.00474-4e-5 0.0072-1.6e-4l11.137-0.63384 2.3e-4 -1e-4 0.04676-0.0027 1.147-0.06844 1.2094-0.07206c5.5862-0.3336 11.875-0.71755 14.804-1.0341h-3.6e-4l6.2476-0.5432c0.036-0.0031 0.06897-0.02136 0.0907-0.0502 0.0217-0.0289 0.03027-0.06564 0.02343-0.1011l-0.63393-3.2596h1.4e-4c-0.27964-1.8418-3.0052-8.3748-6.0774-14.609-5.076-10.334-6.3522-12.066-13.787-19.501-4.5259-4.5258-9.6077-8.884-11.162-9.7986l-0.00355-2e-3 -2.988-1.6298c-0.01907-0.01035-0.04006-0.01555-0.06106-0.01555z"/> <path d="m771.86 812.66c-0.01062 2e-4 -0.02037 9e-4 -0.03162 0.0024h-1.5e-4c-0.09775 0.01326-0.1643 0.08125-0.1788 0.17604v2.6e-4c-0.00257 0.0168-0.0033 0.0316-0.00306 0.0479 0.0083 0.45416 1.2438 2.0246 2.9339 3.7917 7.9529 8.4953 15.278 21.426 19.619 34.449l2.4e-4 8e-4c1.431 4.2029 2.5418 6.1528 3.652 6.1528l0.00377-5e-5c3.0084-0.0912 17.053-3.4455 22.133-5.4406 0.07825-0.0291 0.167-0.062 0.2432-0.09024l1e-4 -6e-5 0.2307-0.0857c2.9304-1.0884 4.5306-1.6971 3.8722-3.4697-0.5635-1.5167-2.8158-3.9126-7.0067-8.3789l-0.55055-0.58664-1.5e-4 -1e-4c-10.155-10.79-24.479-19.946-38.442-24.661l-4.9e-4 -2e-4 -0.00171-5.6e-4h1.3e-4c-3.0093-1.062-5.7927-1.877-6.433-1.9057h-0.0081c-0.0068-0.00114-0.0139-0.00174-0.0211-0.00174z"/> </g> <g fill="#f3c341"> <path d="m824.28 1067.4c0.2616 0 0.54766 0.0144 0.86621 0.0432h-0.0011l2.4304 0.2353v50.868l-1.721 0.2246-0.0028 5e-4c-0.54975 0.0754-1.0044 0.1286-1.4022 0.1286-2.6327 0-2.8343-2.3274-2.8343-25.341 0-12.955 0.26751-24.09 0.51159-25.18h-0.00549c0.28185-0.6203 0.83679-0.9787 2.1587-0.9787zm0.43576 65.196c2.9984 0 5.2444 2.4822 5.2444 4.9803 0 1.3239-0.6313 2.6882-2.197 3.7148h-7e-5c-0.89129 0.584-1.786 0.8565-2.6398 0.8565-1.4921 0-2.9559-0.8384-4.1124-2.5379h-5e-4c-1.2631-2.0525-0.55147-5.3608 1.122-6.3906l6e-5 -3e-4c0.09944-0.061 0.20489-0.1154 0.31014-0.1596h4e-5c0.79256-0.3216 1.5567-0.4632 2.2732-0.4632zm-0.4364-97.792c-1.6263 0-3.2685 0.3737-4.3313 1.2053h-1e-4c-1.5461 1.1723-6.1634 9.0473-29.621 49.647l-8e-4 0.0015c-4.8246 8.4209-13.56 23.52-19.902 34.481l-0.7415 1.2817-0.0011 0.0018-0.0059 0.0102c-9.8384 16.879-11.717 20.688-12.089 24.786l-2.7e-4 0.0031c-0.3698 4.4366-0.16746 5.2014 2.4742 7.8433l2.7164 2.7163c0.07786 0.0779 0.18345 0.1216 0.29356 0.1216l61.298 7e-4 61.298-1e-3c0.1101 0 0.2157-0.0437 0.2936-0.1215l3.169-3.169c5.2417-5.2417 4.1809-9.1887-5.277-25.402l-7e-4 -1e-3c-4.2623-7.2551-17.738-30.408-30.06-51.608-12.251-21.08-23.156-39.186-24.352-40.216-1.2285-1.0684-3.2576-1.5813-5.1608-1.5813z"/> <path d="m327.73 805.61c1.2178 0 2.6229 0.44295 3.1453 0.96305h-0.00336c1.3871 2.2663 1.384 47.709-0.0097 49.774h-0.00257c-0.56645 0.54817-1.7921 0.87982-3.1296 0.87982-1.3376 0-2.5633-0.33165-3.1298-0.87985h-0.00238c-1.3936-2.0629-1.3971-47.507-0.00977-49.774h-0.00323c0.52253-0.5201 1.9276-0.96295 3.1452-0.96295zm0.32 66.373c0.35816 0 0.75183 0.05565 1.2136 0.16559l0.00367 8.6e-4c2.9536 0.675 4.3856 2.5668 4.3856 6.0238 0 3.239-2.3027 5.219-4.9123 5.219-1.3466 0-2.7973-0.52715-4.0773-1.7198h-6e-5c-2.415-2.2539-2.4639-4.9913-0.078-7.5476v-6e-5c0.11218-0.12018 0.23187-0.24204 0.35522-0.36158l0.01215-0.01226c1.2572-1.3234 2.0862-1.768 3.0975-1.768zm0.09528-88.805c-19.447 0-38.321 9.7685-49.833 26.581-16.135 23.519-13.948 54.519 5.38 75.396 12.047 13.031 28.124 19.581 44.262 19.581 15.242 0 30.534-5.843 42.53-17.574h-6e-5c11.397-11.123 18.324-27.528 18.324-43.124 0-12.325-5.7408-27.988-14.125-38.378-7.938-9.9452-22.057-18.598-34.645-21.244-3.9492-0.8331-7.9346-1.2384-11.894-1.2384z"/> <path d="m473.45 824.91c-5.6375 0-7.7261 0.05106-7.7261 0.83642 0 0.34694 0.42621 0.74564 0.85065 1.1476h-7e-5c0.72657 0.7236 6.0513 5.233 13.117 11.217 2.9704 2.5156 6.1518 5.2098 9.5276 8.0766l6.1e-4 5.4e-4c7.3701 6.2094 16.015 13.544 22.957 19.433 3.857 3.2722 7.27 6.1674 9.5477 8.0924h-4e-5c14.634 12.376 15.701 13.177 19.69 13.177 3.5396 0 7.2569-2.9984 54.82-43.057l2e-4 -1.4e-4 21.459-18.108c0.06536-0.0552 0.08947-0.14527 0.0605-0.2258-0.029-0.0805-0.10507-0.1344-0.19064-0.13517l-29.97-0.27173h-7.5e-4c-8.2163-0.0451-19.117-0.06786-29.903-0.06786-10.798 0-21.584 0.02266-29.677 0.06786h-7e-4l-29.608 0.27173c-0.0921 8.7e-4 -0.1723 0.06317-0.19586 0.15223-0.02362 0.08904 0.01526 0.18284 0.09492 0.22918l4.9799 2.8974h-5e-5c2.7342 1.6399 7.2808 3.4594 10.023 4.0078h1.3e-4c9.3821 1.9127 9.3425 1.9863 9.3425 5.2319v2.8669l-5.2213-0.17406-0.00293-4e-5c-9.4453-0.18-19.174-4.7693-26.567-12.342l-3.169-3.2597c-0.03851-0.0396-0.09143-0.0619-0.14673-0.0619l-11.318 1e-4c-1.0067 0-1.9292-0.00116-2.7723-0.00116z"/> <path d="m625.17 829.34c-0.0477 0-0.0949 0.01666-0.1327 0.0488l-14.034 11.952h-5e-5c-7.6789 6.5046-19.936 16.855-27.071 22.816l-3.4e-4 3e-4 -12.948 10.865c-0.0472 0.0396-0.074 0.0984-0.07305 0.16004 9.5e-4 0.06166 0.02975 0.11951 0.07819 0.15759l2.5352 1.992h-5e-5c0.2787 0.22636 0.76415 0.6192 1.6083 1.3023 2.2224 1.7984 6.6416 5.3748 11.936 9.6762 4.0985 3.3297 8.6808 7.0602 13.525 11.021l6e-4 4.9e-4 24.447 19.829c0.0372 0.03016 0.0828 0.04571 0.12897 0.04571 0.02948 0 0.05913-0.00635 0.08683-0.01935 0.07107-0.0333 0.1168-0.10436 0.1177-0.1828l0.2716-22.545v-1e-3c0.0905-12.393 0.0905-32.61 0-44.731v-9.7e-4l-0.27166-22.183c-9.8e-4 -0.07936-0.04774-0.15095-0.11994-0.1838-0.0271-0.0123-0.0559-0.0183-0.0846-0.0183z"/> <path d="m564.87 879.96c-0.04634 0-0.0927 0.0157-0.1306 0.0471l-6.8812 5.7043-6e-5 1e-4c-3.7124 3.0785-8.3146 6.4153-10.015 7.3103h-1e-4c-2.0419 1.0204-4.0687 1.5433-6.1794 1.5433-4.5497 0-9.5396-2.4302-15.96-7.6775h4e-5c-2.9743-2.4333-6.0486-4.8753-6.7893-5.4316h-3.5e-4c-0.14459-0.1203-0.32685-0.1753-0.53835-0.1753-1.8249 0-7.7758 4.484-26.793 19.73l-5.4e-4 4.5e-4c-14.114 11.4-26.083 21.101-26.636 21.654v7e-5c-0.09613 0.09613-0.1095 0.24798-0.00147 0.35593 0.02021 0.0202 0.04187 0.0359 0.06073 0.0477l4.4e-4 2.4e-4c1.1304 0.70141 23.445 0.94136 75.833 0.94136h0.0723c50.994 0 75.025-0.2472 76.175-0.87325 0.02691-0.01471 0.14581-0.08081 0.14569-0.22271 0-0.04544-0.01349-0.08464-0.0304-0.11469l-0.00799-0.01295c-0.38535-0.57824-7.8548-6.7671-16.612-13.808-8.788-7.0667-20.457-16.474-25.802-20.914l-6e-4 -4.9e-4 -9.7788-8.0584c-0.0378-0.0311-0.0839-0.0467-0.1301-0.0467z"/> <path d="m458.12 829.43c-0.02893 0-0.05811 0.0061-0.08545 0.01865-0.07263 0.03339-0.1192 0.10595-0.1192 0.18592v43.914c0 23.611 0.17022 43.071 0.44445 43.947h-0.0014c0.00847 0.0314 0.0636 0.17145 0.2143 0.17145 0.04247 0 0.0794-0.01225 0.09649-0.01845l4.3e-4 -1e-4c1.6304-0.59363 51.221-40.966 52.13-42.516v-4e-5c0.00928-0.0159 0.03998-0.0677 0.03998-0.1346 0-0.0422-0.01001-0.07874-0.01929-0.1051-0.19757-0.5595-3.37-3.4337-7.0258-6.4804-3.8865-3.2538-15.667-13.313-26.256-22.362h6e-5l-19.286-16.57c-0.03783-0.03255-0.08533-0.04935-0.1333-0.04935z"/> <path d="m558.45 701.06c-2.0072 0-4.0446 0.45707-5.939 1.3611l-0.00116 6.3e-4c-6.1714 3.0455-8.4665 11.492-5.4911 17.521 0.41724 0.8455 0.93754 1.6429 1.5661 2.3725l5.4e-4 6.6e-4c2.9172 3.3295 6.5672 4.831 10.088 4.831 6.5969 0 12.723-5.2691 12.723-13.589 0-3.8432-2.8298-8.4908-6.5672-10.77l-6.1e-4 -3.4e-4c-1.9283-1.157-4.1354-1.7281-6.3792-1.7281z"/> </g> </svg>